<?xml version="1.0" encoding="UTF-8"?>
<svg xmlns="http://www.w3.org/2000/svg" viewBox="0 0 512 512" width="512" height="512">
  <!-- Copilot (base icon) -->
  <g transform="translate(26,26) scale(1.53,1.53) scale(1,-1) translate(0,-285)">
    <path d="M117 131Q123 131 127.0 126.5Q131 122 131 116V88Q131 83 127.0 78.5Q123 74 117.0 74.0Q111 74 107.0 78.5Q103 83 103 88V116Q103 122 107.0 126.5Q111 131 117 131ZM183 131Q189 131 193.0 126.5Q197 122 197 116V88Q197 83 193.0 78.5Q189 74 183.0 74.0Q177 74 173.0 78.5Q169 83 169 88V116Q169 122 173.0 126.5Q177 131 183 131ZM153 266Q170 285 208 280Q243 277 259 257Q272 240 272 210Q272 191 267 179Q268 175 269 168L270 164Q282 159 290.5 146.5Q299 134 300 124V89Q300 83 288.0 71.5Q276 60 258 48Q235 35 210 27Q180 18 150.0 18.0Q120 18 91 27Q66 34 44 47Q25 58 13.0 70.0Q1 82 0 88V125Q1 135 9.5 147.0Q18 159 30 164V168Q32 175 33 179Q28 191 28 210Q28 240 41 257Q57 277 92 280Q130 285 147 266L150 263ZM150 182Q146 174 140 168Q122 149 89 149Q69 149 57 155L56 153V73Q61 69 74 63Q91 56 108 52Q131 46 150.0 46.0Q169 46 192 52Q209 56 225 63Q239 69 244 73V153L243 155Q231 149 211 149Q178 149 160 168Q154 174 150 182ZM127 247Q119 255 95.0 252.5Q71 250 63 239Q56 231 56.0 211.0Q56 191 62.0 184.0Q68 177 89.0 177.0Q110 177 119.5 187.0Q129 197 131 217Q134 239 127 247ZM205 253Q181 255 173.5 247.0Q166 239 169 217Q171 197 180.5 187.0Q190 177 211.0 177.0Q232 177 238.0 184.0Q244 191 244.0 211.0Q244 231 236.5 240.5Q229 250 205 253Z" fill="#c9d1d9"/>
  </g>
  <!-- Terminal (overlay badge, bottom-right) -->
  <g transform="translate(300,300) scale(0.76,0.76) scale(1,-1) translate(0,-282)">
    <circle cx="141" cy="141" r="175" fill="#0d1117" transform="scale(1,-1) translate(0,-282)"/>
    <path d="M234 281H66Q46 281 32.5 267.5Q19 254 19 234V66Q19 46 32.5 32.5Q46 19 66 19H234Q254 19 267.5 32.5Q281 46 281 66V234Q281 254 267.5 267.5Q254 281 234 281ZM263 66Q263 54 254.5 46.0Q246 38 234 38H66Q54 38 46.0 46.0Q38 54 38 66V234Q38 246 46.0 254.5Q54 263 66 263H234Q246 263 254.5 254.5Q263 246 263 234ZM129 134 72 78Q70 75 66.0 75.0Q62 75 59.0 77.5Q56 80 56.0 84.0Q56 88 59 91L109 141L59 190Q56 193 56.0 197.0Q56 201 59.0 203.5Q62 206 66.0 206.0Q70 206 72 203L128 147Q131 144 131.0 140.5Q131 137 128 134ZM244 84Q244 80 241.0 77.5Q238 75 234 75H141Q137 75 134.0 77.5Q131 80 131.0 84.0Q131 88 134.0 91.0Q137 94 141 94H234Q238 94 241.0 91.0Q244 88 244 84Z" fill="#7ee787"/>
  </g>
</svg>